<?xml version="1.0" encoding="UTF-8"?>
<svg id="Layer_1" xmlns="http://www.w3.org/2000/svg" width="458.8" height="52.9" baseProfile="tiny" version="1.2" viewBox="0 0 458.8 52.9">
  <path d="M69.6,0h-4.5c-8.8,0-16.8,7.2-17.6,16.1l-2,20.5c-.9,8.9,5.7,16.1,14.6,16.1h4.5c8.9,0,16.8-7.2,17.7-16.1l2-20.5c.8-8.9-5.7-16.1-14.7-16.1ZM68,35.2c-.2,1.7-1.7,3.1-3.4,3.1h-1.8c-1.7,0-3-1.4-2.8-3.1l1.7-17.8c.2-1.7,1.7-3.1,3.4-3.1h1.8c1.7,0,3,1.4,2.8,3.1,0,0-1.7,17.8-1.7,17.8Z" fill="#258eff"/>
  <path d="M291.1,0h-4.5c-8.9,0-16.8,7.2-17.6,16.1l-2,20.5c-.9,8.9,5.7,16.1,14.6,16.1h4.5c8.9,0,16.8-7.2,17.7-16.1l2-20.5c.8-8.9-5.8-16.1-14.7-16.1ZM289.5,35.2c-.2,1.7-1.7,3.1-3.4,3.1h-1.8c-1.7,0-3-1.4-2.8-3.1l1.7-17.8c.2-1.7,1.7-3.1,3.4-3.1h1.8c1.7,0,3,1.4,2.8,3.1l-1.7,17.8Z" fill="#258eff"/>
  <path d="M121.3,0l-11.4,34.4c-.8,2.4-3,4-5.5,4h0L107.3,0h-7.2c-3.9,0-7.5,3.2-7.8,7.2l-3.2,45.5h14c7.9,0,14.9-5,17.4-12.4L134.2,0s-12.9,0-12.9,0Z" fill="#258eff"/>
  <path d="M457.4,14.4l1.4-14.4h-29.6c-3.2,0-6.2,2.1-7.4,5.1-.3.7-.5,1.4-.5,2.1l-3.7,38.3c-.4,4,2.5,7.2,6.5,7.2h29.6l1.4-14.4h-22.4l.6-6.6h13.2l1-10.8h-13.2l.6-6.6h22.5Z" fill="#258eff"/>
  <path d="M360.2,0l-9.4,28.4.2-28.4h-10.5l-13.9,31.2,2.2-31.2h-7.2c-4,0-7.5,3.2-7.9,7.2l-3.2,45.5h14.4l16.3-30.7.3,30.7h13.4L373,0h-12.9.1Z" fill="#258eff"/>
  <path d="M258.8,0h-25c-4,0-7.5,3.2-7.9,7.2l-4.4,45.5h14.4l1.7-17.4h3.1l3.2,17.5h14.4l-3.1-20.9c3.4-2.6,5.7-6.6,6.1-11h0l1.6-16.4c.2-2.5-1.6-4.5-4.1-4.5ZM246.4,17.2c0,2.1-1.7,3.9-3.9,3.9h-2.2c-1.1,0-1.9-.9-1.9-1.9v-2.8c0-1.1.9-1.9,1.9-1.9h4.2c1.1,0,1.9.9,1.9,1.9v.8Z" fill="#258eff"/>
  <path d="M204.9,0h-15c-4,0-7.5,3.2-7.9,7.2l-4.4,45.5h22.1c8.1-.2,15.3-6.8,16.1-14.9l.2-1.9c.3-3.6-.6-6.9-2.5-9.5,2.4-2.6,4-5.9,4.4-9.5l.2-1.9c.8-8.1-5.1-14.7-13.2-14.9h0ZM202.5,18.3c-.1,1.5-1.5,2.7-3,2.7h-5.3l.5-4.7c.1-1.1,1-1.9,2.1-1.9h3.4c1.5,0,2.6,1.2,2.4,2.7v1.2h0ZM200.8,35.6c-.1,1.5-1.5,2.7-3,2.7h-5.3l.5-4.7c.1-1.1,1-1.9,2.1-1.9h3.4c1.5,0,2.6,1.2,2.4,2.7v1.2h0Z" fill="#258eff"/>
  <g>
    <path d="M414.9,0h-29.5c-4,0-7.5,3.2-7.9,7.2l-1.6,16.3c-.4,4.4,3.1,8.3,7.5,8.3h11.9c1.5,0,2.7,1.2,2.7,2.7v1.2c0,1.5-1.2,2.7-2.7,2.7h-20.8l-1.4,14.4h22.1c8.1-.2,15.3-6.8,16.1-14.9l.2-1.9c.8-8.1-5.1-14.7-13.2-14.9h-6.3c-1.1,0-1.9-.9-1.9-1.9v-2.8c0-1.1.9-1.9,1.9-1.9h21.6l1.3-14.5Z" fill="#fff"/>
    <g>
      <polygon points="392.5 0 392.5 0 392.5 0 392.5 0" fill="#258eff"/>
      <path d="M414.9,0h-29.5c-4,0-7.5,3.2-7.9,7.2l-1.6,16.3c-.4,4.4,3.1,8.3,7.5,8.3h11.9c1.5,0,2.7,1.2,2.7,2.7v1.2c0,1.5-1.2,2.7-2.7,2.7h-20.8l-1.4,14.4h22.1c8.1-.2,15.3-6.8,16.1-14.9l.2-1.9c.8-8.1-5.1-14.7-13.2-14.9h-6.3c-1.1,0-1.9-.9-1.9-1.9v-2.8c0-1.1.9-1.9,1.9-1.9h21.6l1.3-14.5Z" fill="#258eff"/>
    </g>
  </g>
  <g>
    <path d="M40.5,13.9q0-.2,0,0h0Z" fill="#258eff"/>
    <path d="M31.6.7c-1.3-.5-2.7-.7-4.2-.7h-15.1c-4,0-7.5,3.2-7.9,7.2L0,52.7h14.4l3.7-38.3h4.9c1.7,0,3,1.5,2.9,3.1l-3.4,35.2h14.4s3.5-36.2,3.7-38.8v.4c.6-6.3-3.3-11.8-8.9-13.7h-.1Z" fill="#258eff"/>
  </g>
  <path d="M167.5,0h-21c-4,0-7.5,3.2-7.9,7.2l-8.9,45.5h14.4l1.9-10.2h10.6v10.2h14.4l.7-52.7h-4.2ZM147.9,31.7l2.9-16.2c.5-2.8,2.9-4.8,5.7-4.8h0v21h-8.7.1Z" fill="#258eff"/>
</svg>
